<svg width="40" height="45" viewBox="0 0 40 45" fill="none" xmlns="http://www.w3.org/2000/svg">
<path d="M26.6667 4.44444L20 8.88889L13.3333 4.44444M26.6667 4.44444C27.9711 5.57556 30.9556 7.31778 31.1022 9.21333C31.1689 10.0333 30.8267 10.4822 30.1378 11.38C28.64 13.3378 26.6667 14.4889 26.6667 17.7778H13.3333C13.3333 14.4911 11.36 13.3378 9.86222 11.38C9.17556 10.4822 8.83111 10.0356 8.89556 9.21333C9.04444 7.31778 12.0311 5.57778 13.3333 4.44444M26.6667 4.44444V0M13.3333 4.44444V0M14.4444 17.7778H25.5556M33.3333 37.7778C37.7778 37.7778 40 32.9489 40 32.9489C33.7222 28.8689 30 24.0756 27.9711 20.4556C27.2 19.0778 26.8133 18.3889 26.2933 18.0822C25.7733 17.7778 25.0778 17.7778 23.6867 17.7778H16.3111C14.92 17.7778 14.2244 17.7778 13.7044 18.0822C13.1844 18.3867 12.7978 19.0756 12.0267 20.4556C10 24.0756 6.27778 28.8667 0 32.9489C0 32.9489 2.22222 37.7778 6.66667 37.7778" stroke="black" stroke-width="5" stroke-linecap="round" stroke-linejoin="round"/>
<path d="M23.7912 26.6666C24.5467 28.4355 27.8245 32.6022 31.4245 36.2444C32.7512 37.5888 33.4156 38.26 33.3245 39.4C33.2356 40.5377 32.6801 40.9177 31.569 41.6777C29.0445 43.4 25.1912 44.4444 20.0001 44.4444C14.809 44.4444 10.9556 43.4022 8.42897 41.6777C7.31786 40.9177 6.7623 40.5377 6.67341 39.4C6.58452 38.26 7.24897 37.5888 8.57564 36.2444C12.1756 32.6022 15.4556 28.4355 16.209 26.6666" stroke="black" stroke-width="5" stroke-linecap="round" stroke-linejoin="round"/>
</svg>
