<svg width="45" height="38" viewBox="0 0 45 38" fill="none" xmlns="http://www.w3.org/2000/svg">
<path fill-rule="evenodd" clip-rule="evenodd" d="M11.8887 4.77708L4.16578 12.5L7.24494 15.5792L8.88661 13.3875C10.1324 11.7271 12.7762 12.6812 12.672 14.7562L11.8533 31.1458C11.8392 31.4277 11.8825 31.7095 11.9806 31.9741C12.0787 32.2388 12.2295 32.4807 12.4239 32.6853C12.6184 32.8898 12.8524 33.0528 13.1117 33.1642C13.371 33.2756 13.6502 33.3331 13.9324 33.3333H30.1741C30.4563 33.3331 30.7356 33.2756 30.9949 33.1642C31.2542 33.0528 31.4882 32.8898 31.6826 32.6853C31.877 32.4807 32.0279 32.2388 32.126 31.9741C32.2241 31.7095 32.2674 31.4277 32.2533 31.1458L31.4345 14.7562C31.3304 12.6812 33.9741 11.7271 35.2199 13.3875L36.8616 15.5792L39.9408 12.5L32.2179 4.77708C31.4283 3.98958 30.2824 4.16667 29.272 4.16667C28.5405 5.43377 27.4882 6.48593 26.221 7.21735C24.9538 7.94877 23.5164 8.33366 22.0533 8.33333C20.5902 8.33366 19.1527 7.94877 17.8856 7.21735C16.6184 6.48593 15.5661 5.43377 14.8345 4.16667C13.822 4.16667 12.6762 3.98958 11.8887 4.77708ZM8.94286 1.83125C10.1147 0.659066 11.7041 0.000353984 13.3616 0H16.0116C16.9949 0 17.8283 0.61875 18.1574 1.47917C18.4582 2.26884 18.9918 2.94849 19.6875 3.42803C20.3832 3.90757 21.2083 4.16435 22.0533 4.16435C22.8983 4.16435 23.7233 3.90757 24.4191 3.42803C25.1148 2.94849 25.6484 2.26884 25.9491 1.47917C26.2783 0.61875 27.1116 0 28.0949 0H30.7449C32.4017 0.000906288 33.9903 0.659577 35.1616 1.83125L42.8866 9.55417C43.6677 10.3355 44.1066 11.3951 44.1066 12.5C44.1066 13.6048 43.6677 14.6645 42.8866 15.4458L39.8074 18.525C38.7241 19.6083 37.2116 19.9604 35.8491 19.6208L36.4158 30.9375C36.4581 31.7835 36.3281 32.6292 36.0335 33.4234C35.739 34.2176 35.2861 34.9436 34.7023 35.5573C34.1186 36.1711 33.4162 36.6598 32.6377 36.9937C31.8593 37.3277 31.0211 37.4999 30.1741 37.5H13.9324C13.0854 37.4999 12.2472 37.3277 11.4688 36.9937C10.6904 36.6598 9.98798 36.1711 9.40423 35.5573C8.82048 34.9436 8.36757 34.2176 8.07302 33.4234C7.77847 32.6292 7.64843 31.7835 7.69078 30.9375L8.25744 19.6208C7.5592 19.7956 6.82758 19.7866 6.13387 19.5945C5.44017 19.4025 4.80805 19.034 4.29911 18.525L1.21994 15.4458C0.438814 14.6645 0 13.6048 0 12.5C0 11.3951 0.438814 10.3355 1.21994 9.55417L8.94286 1.83125Z" fill="black"/>
</svg>
