<svg width="30" height="30" viewBox="0 0 30 30" fill="none" xmlns="http://www.w3.org/2000/svg">
<path d="M21.1399 20.7687C22.3225 19.0755 22.9562 17.0597 22.9551 14.9943C22.954 12.9289 22.3181 10.9138 21.1337 9.22184M20.0049 7.87872C18.5964 6.47017 16.8019 5.51092 14.8483 5.12227C12.8946 4.73363 10.8696 4.93304 9.02929 5.69529C7.18898 6.45754 5.61603 7.7484 4.50936 9.40462C3.40269 11.0608 2.81201 13.008 2.81201 15C2.81201 16.9919 3.40269 18.9391 4.50936 20.5953C5.61603 22.2515 7.18898 23.5424 9.02929 24.3046C10.8696 25.0669 12.8946 25.2663 14.8483 24.8777C16.8019 24.489 18.5964 23.5298 20.0049 22.1212" stroke="black" stroke-width="2" stroke-linecap="round" stroke-linejoin="round"/>
<path d="M16.5384 10.577C15.533 9.74638 14.2748 9.28304 12.9709 9.26329C11.667 9.24354 10.3953 9.66857 9.36524 10.4683C8.33523 11.2681 7.60838 12.3949 7.30447 13.663C7.00056 14.9311 7.13772 16.265 7.69334 17.4447C8.24896 18.6245 9.1899 19.5798 10.3611 20.1532C11.5323 20.7266 12.8639 20.8839 14.1365 20.5992C15.4091 20.3146 16.5468 19.6049 17.362 18.5871C18.1773 17.5693 18.6215 16.3041 18.6215 15.0001H13.5802M24.6102 23.1932C26.2894 20.7881 27.1891 17.9251 27.1874 14.9917C27.1857 12.0584 26.2828 9.19643 24.6009 6.79321" stroke="black" stroke-width="2" stroke-linecap="round" stroke-linejoin="round"/>
</svg>
