<svg width="238" height="218" viewBox="0 0 238 218" fill="none" xmlns="http://www.w3.org/2000/svg">
<g filter="url(#filter0_d_302_885)">
<path d="M138.618 162.262C154.307 150.579 176.947 132.288 186.382 117.659C193.442 106.73 195.739 93.1905 192.668 80.6014C186.108 51.9245 149.779 40.2064 127.149 59.4239C125.877 60.4976 124.704 61.6879 123.499 62.9101C122.672 63.75 121.328 63.7499 120.501 62.91C119.296 61.6879 118.123 60.4976 116.851 59.4239C94.2214 40.2064 57.8925 51.9245 51.332 80.6014C48.2614 93.1905 50.5581 106.73 57.6179 117.659C67.0526 132.288 89.6932 150.579 105.382 162.262C115.198 169.573 128.802 169.573 138.618 162.262Z" fill="url(#paint0_linear_302_885)" shape-rendering="crispEdges"/>
</g>
<defs>
<filter id="filter0_d_302_885" x="0" y="0" width="244" height="217.746" filterUnits="userSpaceOnUse" color-interpolation-filters="sRGB">
<feFlood flood-opacity="0" result="BackgroundImageFix"/>
<feColorMatrix in="SourceAlpha" type="matrix" values="0 0 0 0 0 0 0 0 0 0 0 0 0 0 0 0 0 0 127 0" result="hardAlpha"/>
<feOffset/>
<feGaussianBlur stdDeviation="25"/>
<feComposite in2="hardAlpha" operator="out"/>
<feColorMatrix type="matrix" values="0 0 0 0 0 0 0 0 0 0 0 0 0 0 0 0 0 0 0.25 0"/>
<feBlend mode="normal" in2="BackgroundImageFix" result="effect1_dropShadow_302_885"/>
<feBlend mode="normal" in="SourceGraphic" in2="effect1_dropShadow_302_885" result="shape"/>
</filter>
<linearGradient id="paint0_linear_302_885" x1="122" y1="50" x2="122" y2="174" gradientUnits="userSpaceOnUse">
<stop stop-color="white"/>
<stop offset="1" stop-color="#616161" stop-opacity="0.25"/>
</linearGradient>
</defs>
</svg>
