<svg width="50" height="31" viewBox="0 0 50 31" fill="none" xmlns="http://www.w3.org/2000/svg">
<path d="M0.118649 29.45L10.0491 12.2553C12.5094 8.41925 16.3771 5.68424 20.8332 4.62933V3.1C20.8332 2.27783 21.1622 1.48933 21.7478 0.907969C22.3334 0.326606 23.1277 0 23.9559 0H28.1197C28.9479 0 29.7422 0.326606 30.3278 0.907969C30.9134 1.48933 31.2424 2.27783 31.2424 3.1V4.13333H48.9591C49.2351 4.13333 49.4999 4.2422 49.6951 4.43599C49.8903 4.62978 50 4.89261 50 5.16667C50 5.44072 49.8903 5.70356 49.6951 5.89734C49.4999 6.09113 49.2351 6.2 48.9591 6.2H46.0236C46.1301 6.49171 46.1864 6.7991 46.1902 7.10933L47.7516 21.1213C47.8336 21.8433 47.7612 22.5744 47.5393 23.2668C47.3173 23.9591 46.9508 24.5972 46.4635 25.1394C45.9763 25.6816 45.3793 26.1157 44.7116 26.4133C44.0439 26.7109 43.3205 26.8654 42.5886 26.8667H40.9439C40.1193 26.8721 39.3304 27.2011 38.7492 27.7819C38.1681 28.3627 37.8419 29.1481 37.8419 29.9667C37.8419 30.2407 37.7323 30.5036 37.5371 30.6973C37.3418 30.8911 37.0771 31 36.801 31H1.03467C0.852478 30.9989 0.673767 30.9504 0.516399 30.8592C0.359028 30.7681 0.228512 30.6376 0.13789 30.4806C0.0472717 30.3237 -0.000278473 30.146 0 29.9651C0.000274658 29.7843 0.0483665 29.6066 0.139465 29.45H0.118649ZM29.1606 3.1C29.1606 2.82594 29.0509 2.56311 28.8557 2.36932C28.6605 2.17554 28.3957 2.06667 28.1197 2.06667H23.9559C23.6799 2.06667 23.4151 2.17554 23.2199 2.36932C23.0247 2.56311 22.915 2.82594 22.915 3.1V4.25733C23.6059 4.17583 24.3011 4.13443 24.9969 4.13333H29.1606V3.1ZM44.1292 7.23333C44.1292 6.95928 44.0195 6.69644 43.8243 6.50266C43.6291 6.30887 43.3643 6.2 43.0882 6.2H24.9969C22.3762 6.19167 19.7959 6.84092 17.4957 8.08743C15.1954 9.33394 13.2498 11.1373 11.8395 13.33L8.8 18.6H22.915V15.5C22.915 14.1297 23.4634 12.8156 24.4394 11.8466C25.4155 10.8777 26.7393 10.3333 28.1197 10.3333H38.529C39.3572 10.3333 40.1515 10.6599 40.7371 11.2413C41.3227 11.8227 41.6517 12.6112 41.6517 13.4333V17.5667C41.6498 17.9193 41.5864 18.2689 41.4644 18.6H45.3783L44.1292 7.23333ZM24.9969 15.5V18.6H38.5498C38.8222 18.5946 39.0817 18.4833 39.2724 18.2901C39.4631 18.0969 39.5699 17.8372 39.5699 17.5667V13.4333C39.5699 13.1593 39.4602 12.8964 39.265 12.7027C39.0698 12.5089 38.805 12.4 38.529 12.4H28.1197C27.2914 12.4 26.4971 12.7266 25.9115 13.308C25.3259 13.8893 24.9969 14.6778 24.9969 15.5ZM40.6108 24.8H42.5886C43.0285 24.7999 43.4634 24.7075 43.8648 24.529C44.2663 24.3504 44.6252 24.0897 44.918 23.7638C45.2109 23.438 45.4311 23.0544 45.5642 22.6382C45.6974 22.222 45.7404 21.7825 45.6906 21.3487V20.6667H7.59252L5.19839 24.8H40.6108ZM35.8225 28.9333C35.9818 28.1819 36.3091 27.4756 36.7802 26.8667H4.01173L2.82507 28.9333H35.8225Z" fill="black"/>
</svg>
