<svg width="500" height="500" viewBox="0 0 500 500" fill="none" xmlns="http://www.w3.org/2000/svg">
<rect width="500" height="500" rx="100" fill="black"/>
<rect x="66" y="50" width="120" height="40" rx="20" fill="white"/>
<circle cx="235" cy="70" r="20" fill="white"/>
<path d="M274.104 153.956C328.433 107.073 415.944 135.838 431.666 205.67L431.689 205.772L431.715 205.876C439.295 237.457 433.611 271.507 416.181 298.927L416.175 298.936C404.187 317.822 383.145 339.954 358.933 361.932C334.939 383.712 308.704 404.567 287.109 420.907L287.108 420.908C283.209 423.86 276.825 428.494 269.942 433.434C258.021 441.989 241.979 441.989 230.058 433.434C223.175 428.494 216.791 423.86 212.892 420.908L212.891 420.907L208.789 417.791C188.025 401.956 163.562 382.35 141.067 361.932C116.855 339.954 95.8127 317.822 83.8252 298.936L83.8193 298.926C66.3884 271.507 60.7056 237.457 68.2861 205.876L68.3105 205.772L68.334 205.67C84.0563 135.838 171.567 107.073 225.896 153.956L225.915 153.973L225.934 153.988C228.855 156.492 231.636 159.344 235.064 162.879V162.88C243.244 171.319 256.754 171.319 264.935 162.879C268.363 159.344 271.145 156.492 274.066 153.988L274.085 153.973L274.104 153.956Z" stroke="white" stroke-width="30"/>
<path fill-rule="evenodd" clip-rule="evenodd" d="M369.232 305.494C351.76 331.849 309.831 364.803 280.776 385.852C262.498 399.097 237.502 399.097 219.225 385.852C190.17 364.803 148.24 331.849 130.768 305.494C122.873 293.604 124.771 278.33 131.438 265.71L133.31 262.166C136.392 256.331 140.763 251.274 146.091 247.379C153.537 241.934 162.523 239 171.747 239H178.11C192.963 239 207.337 244.251 218.691 253.825L228.666 262.234L236.842 271.139C245.522 280.592 256.045 288.169 267.762 293.404C271.916 295.26 276.195 296.838 280.643 297.795C286.572 299.071 295.623 300.646 304.225 300.66C318.701 300.682 334.449 296.191 334.449 296.191L358.45 291.723C367.069 289.1 374.613 297.215 369.707 304.771C369.55 305.012 369.392 305.253 369.232 305.494Z" fill="white"/>
</svg>
