<svg width="30" height="33" viewBox="0 0 30 33" fill="none" xmlns="http://www.w3.org/2000/svg">
<path d="M29.9821 29.6875L26.5446 2.1875C26.4685 1.58321 26.1744 1.0275 25.7175 0.624716C25.2606 0.221934 24.6724 -0.000208915 24.0634 1.4743e-07H5.93836C5.32929 -0.000208915 4.7411 0.221934 4.28423 0.624716C3.82736 1.0275 3.53324 1.58321 3.45711 2.1875L0.0196084 29.6875C-0.0247368 30.0395 0.00633737 30.3969 0.110766 30.7359C0.215195 31.075 0.390586 31.3879 0.625284 31.6539C0.859982 31.9199 1.14861 32.133 1.47199 32.2789C1.79537 32.4247 2.1461 32.5001 2.50086 32.5H8.85867C9.41464 32.5001 9.95478 32.3149 10.3937 31.9736C10.8326 31.6323 11.1452 31.1545 11.2821 30.6156L15.0009 16.2406L18.718 30.6063C18.8532 31.1471 19.1653 31.6272 19.6047 31.9704C20.0441 32.3135 20.5856 32.4999 21.143 32.5H27.5009C27.8556 32.5001 28.2063 32.4247 28.5297 32.2789C28.8531 32.133 29.1417 31.9199 29.3764 31.6539C29.6111 31.3879 29.7865 31.075 29.8909 30.7359C29.9954 30.3969 30.0265 30.0395 29.9821 29.6875ZM25.1415 11.125C24.2472 10.9197 23.4263 10.4733 22.7679 9.83419C22.1095 9.1951 21.6389 8.3878 21.4071 7.5H24.6884L25.1415 11.125ZM24.0634 2.5L24.3759 5H5.62586L5.93836 2.5H24.0634ZM5.31336 7.5H8.59461C8.36285 8.3878 7.89221 9.1951 7.23383 9.83419C6.57546 10.4733 5.75453 10.9197 4.86023 11.125L5.31336 7.5ZM8.85867 30H2.50086L4.53211 13.7078C6.16019 13.535 7.68723 12.835 8.88088 11.7144C10.0745 10.5938 10.8694 9.11394 11.1446 7.5H13.7509V11.0938L8.85867 30ZM21.1399 29.9906L16.2509 11.0938V7.5H18.8571C19.1323 9.11394 19.9272 10.5938 21.1208 11.7144C22.3145 12.835 23.8415 13.535 25.4696 13.7078L27.5009 30L21.1399 29.9906Z" fill="black"/>
</svg>
