<svg width="19" height="21" viewBox="0 0 19 21" fill="none" xmlns="http://www.w3.org/2000/svg">
<path d="M18.7388 18.5547L16.5904 1.36719C16.5428 0.989506 16.359 0.642186 16.0734 0.390448C15.7879 0.138709 15.4203 -0.000130572 15.0396 9.21438e-08H3.71147C3.33081 -0.000130572 2.96319 0.138709 2.67764 0.390448C2.3921 0.642186 2.20828 0.989506 2.16069 1.36719L0.0122552 18.5547C-0.0154605 18.7747 0.00396086 18.998 0.0692287 19.2099C0.134497 19.4218 0.244116 19.6174 0.390802 19.7837C0.537489 19.95 0.717882 20.0831 0.919995 20.1743C1.12211 20.2655 1.34131 20.3126 1.56304 20.3125H5.53667C5.88415 20.3126 6.22174 20.1968 6.49605 19.9835C6.77036 19.7702 6.96575 19.4715 7.05132 19.1348L9.37554 10.1504L11.6988 19.1289C11.7833 19.4669 11.9783 19.767 12.2529 19.9815C12.5276 20.1959 12.866 20.3124 13.2144 20.3125H17.188C17.4098 20.3126 17.629 20.2655 17.8311 20.1743C18.0332 20.0831 18.2136 19.95 18.3603 19.7837C18.507 19.6174 18.6166 19.4218 18.6818 19.2099C18.7471 18.998 18.7665 18.7747 18.7388 18.5547ZM15.7134 6.95312C15.1545 6.82483 14.6414 6.5458 14.2299 6.14637C13.8184 5.74694 13.5243 5.24237 13.3794 4.6875H15.4302L15.7134 6.95312ZM15.0396 1.5625L15.2349 3.125H3.51616L3.71147 1.5625H15.0396ZM3.32085 4.6875H5.37163C5.22678 5.24237 4.93263 5.74694 4.52115 6.14637C4.10966 6.5458 3.59658 6.82483 3.03765 6.95312L3.32085 4.6875ZM5.53667 18.75H1.56304L2.83257 8.56738C3.85012 8.45935 4.80452 8.02187 5.55055 7.32149C6.29658 6.62112 6.79339 5.69621 6.96538 4.6875H8.59429V6.93359L5.53667 18.75ZM13.2124 18.7441L10.1568 6.93359V4.6875H11.7857C11.9577 5.69621 12.4545 6.62112 13.2005 7.32149C13.9465 8.02187 14.901 8.45935 15.9185 8.56738L17.188 18.75L13.2124 18.7441Z" fill="black"/>
</svg>
