<svg width="45" height="49" viewBox="0 0 45 49" fill="none" xmlns="http://www.w3.org/2000/svg">
<path d="M44.9732 44.5312L39.8169 3.28125C39.7027 2.37482 39.2615 1.54125 38.5762 0.937074C37.8909 0.332902 37.0086 -0.000313373 36.095 2.21145e-07H8.90754C7.99394 -0.000313373 7.11165 0.332902 6.42634 0.937074C5.74104 1.54125 5.29986 2.37482 5.18566 3.28125L0.0294126 44.5312C-0.0371052 45.0592 0.00950606 45.5953 0.166149 46.1039C0.322792 46.6124 0.585879 47.0818 0.937926 47.4809C1.28997 47.8799 1.72292 48.1995 2.20799 48.4183C2.69306 48.6371 3.21915 48.7502 3.75129 48.75H13.288C14.122 48.7501 14.9322 48.4723 15.5905 47.9604C16.2489 47.4485 16.7178 46.7317 16.9232 45.9234L22.5013 24.3609L28.0771 45.9094C28.2799 46.7206 28.748 47.4409 29.4071 47.9556C30.0661 48.4702 30.8783 48.7499 31.7146 48.75H41.2513C41.7834 48.7502 42.3095 48.6371 42.7946 48.4183C43.2797 48.1995 43.7126 47.8799 44.0646 47.4809C44.4167 47.0818 44.6798 46.6124 44.8364 46.1039C44.9931 45.5953 45.0397 45.0592 44.9732 44.5312ZM37.7122 16.6875C36.3708 16.3796 35.1394 15.7099 34.1518 14.7513C33.1643 13.7927 32.4583 12.5817 32.1107 11.25H37.0325L37.7122 16.6875ZM36.095 3.75L36.5638 7.5H8.43879L8.90754 3.75H36.095ZM7.97004 11.25H12.8919C12.5443 12.5817 11.8383 13.7927 10.8508 14.7513C9.86319 15.7099 8.63179 16.3796 7.29035 16.6875L7.97004 11.25ZM13.288 45H3.75129L6.79816 20.5617C9.24028 20.3024 11.5309 19.2525 13.3213 17.5716C15.1118 15.8907 16.3041 13.6709 16.7169 11.25H20.6263V16.6406L13.288 45ZM31.7099 44.9859L24.3763 16.6406V11.25H28.2857C28.6984 13.6709 29.8908 15.8907 31.6813 17.5716C33.4717 19.2525 35.7623 20.3024 38.2044 20.5617L41.2513 45L31.7099 44.9859Z" fill="black"/>
</svg>
