<?xml version="1.0" encoding="UTF-8" standalone="no"?>
<!-- Created with Inkscape (http://www.inkscape.org/) -->

<svg
   version="1.1"
   id="svg2"
   width="427"
   height="585"
   viewBox="0 0 427 585"
   sodipodi:docname="robable.svg"
   inkscape:version="1.2.2 (732a01da63, 2022-12-09)"
   xmlns:inkscape="http://www.inkscape.org/namespaces/inkscape"
   xmlns:sodipodi="http://sodipodi.sourceforge.net/DTD/sodipodi-0.dtd"
   xmlns="http://www.w3.org/2000/svg"
   xmlns:svg="http://www.w3.org/2000/svg">
  <defs
     id="defs6" />
  <sodipodi:namedview
     id="namedview4"
     pagecolor="#ffffff"
     bordercolor="#000000"
     borderopacity="0.25"
     inkscape:showpageshadow="2"
     inkscape:pageopacity="0.0"
     inkscape:pagecheckerboard="0"
     inkscape:deskcolor="#d1d1d1"
     showgrid="false"
     inkscape:zoom="1.391453"
     inkscape:cx="161.34214"
     inkscape:cy="177.87162"
     inkscape:window-width="1920"
     inkscape:window-height="1001"
     inkscape:window-x="-9"
     inkscape:window-y="-9"
     inkscape:window-maximized="1"
     inkscape:current-layer="g8" />
  <g
     inkscape:groupmode="layer"
     inkscape:label="Image"
     id="g8">
    <path
       style="fill:#000000"
       d="m 131.65479,504.75247 c -12.27314,-1.02114 -19.79828,-2.78554 -25.57443,-5.99636 -4.67093,-2.59645 -6.380519,-2.90466 -21.499999,-3.87608 -9.03406,-0.58043 -18.14,-1.60494 -20.23542,-2.27669 -4.74797,-1.52209 -9.26252,-6.54724 -10.70944,-11.92068 -3.38634,-12.57592 6.43257,-32.31977 21.14287,-42.51401 2.2155,-1.53535 4.87164,-4.44483 5.90252,-6.46552 1.03087,-2.02068 4.13321,-5.7049 6.89407,-8.18716 9.36313,-8.41826 18.856689,-11.34032 34.112699,-10.49966 l 9.5688,0.52727 -0.39383,-12.14465 c -0.21661,-6.67955 -0.68948,-17.76964 -1.05083,-24.64464 l -0.65701,-12.5 -11.5,-0.54722 c -6.325,-0.30096 -12.50784,-1.1018 -13.73965,-1.77964 -5.702149,-3.13777 -6.115149,-8.4802 -4.314419,-55.81037 0.520259,-13.67452 1.205379,-33.41277 1.522489,-43.86277 l 0.57655,-19 -2.272489,2.56053 c -1.24986,1.40829 -3.70599,4.25935 -5.45806,6.3357 -4.35464,5.16062 -13.046,11.7635 -21.96479,16.68678 -4.09313,2.25945 -10.00876,6.47239 -13.14584,9.36208 -6.38043,5.87726 -9.08685,7.55491 -12.18771,7.55491 -3.53769,0 -7.66319,-2.73384 -9.00162,-5.96508 -1.33099,-3.21331 -1.42802,-2.71833 5.83588,-29.77065 2.0786,-7.74116 6.16994,-15.67434 8.55582,-16.58989 0.80254,-0.30796 3.05821,-2.94818 5.0126,-5.86716 1.95438,-2.91897 5.24718,-7.3696 7.31733,-9.89029 2.07015,-2.52068 7.58891,-9.49326 12.26391,-15.49461 4.675,-6.00136 12.60779,-15.43755 17.62842,-20.96931 l 9.128429,-10.05776 0.62511,-7.94762 c 0.34382,-4.3712 1.08867,-20.54763 1.65524,-35.94763 0.56656,-15.39999 1.69292,-41.865543 2.50301,-58.812323 1.62399,-33.973387 1.94742,-35.521962 8.02429,-38.419818 3.23764,-1.543921 6.41689,-1.536659 46.70481,0.106674 23.77688,0.969852 54.25569,2.169951 67.73069,2.666887 36.24531,1.336667 42.96612,1.883302 42.36651,3.445867 -0.78329,2.041222 1.62617,2.993259 7.91044,3.125609 4.62378,0.09738 6.79908,0.757062 10.8975,3.304777 5.17625,3.217736 7.82555,3.422195 7.82555,0.603934 0,-1.462645 -0.8639,-2.41359 -5.5,-6.054152 -1.82995,-1.436993 -0.42703,-1.516375 16.5,-0.93362 46.81866,1.611849 50.24355,2.168886 53.63284,8.723051 1.98424,3.837101 1.95901,4.867083 -2.72146,111.101244 l -1.13926,25.85814 5.97698,6.14186 c 10.76513,11.06212 22.88912,25.56117 25.71388,30.75119 7.88766,14.49222 7.31711,27.59348 -1.6279,37.38075 -8.78767,9.61511 -15.4662,12.35927 -37.83508,15.54618 -7.975,1.1362 -17.875,2.92323 -22,3.97117 -17.91299,4.55072 -38.85165,6.33466 -45.82388,3.90413 -3.93264,-1.37092 -6.68664,-5.78674 -8.72718,-13.99333 -0.87773,-3.53002 -2.49946,-8.89322 -3.60385,-11.91822 -1.40516,-3.84881 -1.90848,-7.29956 -1.67654,-11.49421 l 0.33145,-5.99421 -11.80461,-1.08818 c -14.1272,-1.30229 -16.25683,-2.61038 -16.10097,-9.88974 0.21638,-10.10505 4.93554,-12.10357 26.12929,-11.06551 7.82305,0.38317 17.16055,0.38216 20.75,-0.002 7.65353,-0.81962 7.34796,0.14502 4.89911,-15.46591 -1.50446,-9.59062 -1.51053,-10.82288 -0.0701,-14.2281 1.75428,-4.14729 6.78615,-7.76241 10.81246,-7.76816 4.44041,-0.006 7.53674,3.47006 10.92706,12.26837 4.28689,11.12504 5.45654,13.22877 10.24075,18.41903 4.05741,4.40176 7.05758,6.40911 12.46026,8.33686 2.58326,0.92174 2.6309,0.89077 0.75679,-0.49208 -11.61039,-8.56719 -16.36772,-14.7179 -20.52452,-26.53616 -2.53225,-7.1995 -6.03152,-12.56561 -8.75848,-13.43112 -0.98137,-0.31147 -2.52808,-1.80439 -3.43715,-3.3176 -4.97378,-8.27927 -21.25692,-22.01296 -33.27989,-28.06926 -52.00258,-26.1951 -115.44217,0.7173 -132.75621,56.31798 -10.52049,33.78451 -1.52695,70.64787 23.29069,95.46552 19.121,19.12099 45.02229,29.20939 71.24573,27.74979 15.69794,-0.87376 33.67095,-6.39687 45.38753,-13.9476 9.12852,-5.88286 21.16937,-17.00993 25.5278,-23.59049 1.50701,-2.27536 3.61964,-2.97639 19,-6.30471 9.51745,-2.05958 20.36999,-4.05936 24.11674,-4.44395 l 6.81229,-0.69926 -0.56817,10.88535 c -0.3125,5.98694 -1.29277,25.73535 -2.17838,43.88535 -1.07199,21.96974 -2.06075,34.09834 -2.95812,36.28599 -2.10996,5.14371 -6.76798,6.60646 -18.59791,5.84024 l -9.678,-0.62683 -0.58225,5.2503 c -0.61635,5.55776 -2.53394,28.42984 -2.55142,30.43205 -0.007,0.81798 2.52919,1.16771 8.23968,1.13615 16.20766,-0.0896 28.81585,7.34233 37.25,21.95705 1.41919,2.45918 3.36269,3.97707 6.69237,5.22681 9.32075,3.49838 20.84898,14.84983 24.0536,23.68473 2.10142,5.79349 2.3062,17.07318 0.39205,21.59563 -2.5255,5.96685 -7.16693,8.28837 -18.71723,9.36186 -5.66906,0.52688 -6.92215,0.99005 -7.9686,2.94536 -0.68295,1.27609 -2.71835,3.02088 -4.52313,3.8773 -7.15977,3.39753 -13.65933,3.97221 -46.42906,4.10517 -28.128,0.11412 -34.04702,0.41065 -44,2.20431 -16.15765,2.91182 -41.29101,3.70448 -62.5,1.97112 -14.0706,-1.14995 -19.84324,-1.17231 -33.5,-0.12972 -17.88952,1.36573 -33.62845,1.4932 -47,0.38066 z m 127.14856,-97.6805 c -0.1933,-7.69459 -0.6433,-19.35136 -1,-25.90392 l -0.64856,-11.91376 -31.46727,-1.19939 c -17.307,-0.65967 -31.53663,-1.10967 -31.6214,-1 -0.0848,0.10966 -0.45821,5.37439 -0.82988,11.69939 l -0.67577,11.5 4.32499,2.2711 c 4.66804,2.45124 11.66603,8.61542 14.23924,12.54264 1.49641,2.28381 2.3026,2.46935 12.81349,2.94893 14.25019,0.65019 20.00554,2.78709 29.56062,10.97558 1.8392,1.57615 3.8642,2.68661 4.5,2.46766 0.82354,-0.28359 1.05491,-4.42135 0.80454,-14.38823 z m 69.3098,-42.2503 c 0.31702,-0.51295 0.8624,-6.57566 1.21196,-13.4727 0.52847,-10.4272 0.39211,-12.63349 -0.80931,-13.09452 -0.79467,-0.30494 -10.42599,-0.65473 -21.40293,-0.7773 l -19.95808,-0.22286 -0.68862,12.47149 c -0.44759,8.10619 -0.32777,12.90629 0.34231,13.7137 0.64228,0.7739 4.48334,1.36614 10.18862,1.57096 20.88972,0.74995 30.57219,0.6912 31.11605,-0.18877 z M 249.27077,123.27488 c 4.83196,-2.01318 11.16876,-7.97859 13.0004,-12.23846 1.72287,-4.00689 1.79181,-9.7071 0.13362,-11.048193 -1.9387,-1.56795 -49.66792,-3.54694 -51.37505,-2.13015 -2.0037,1.66293 -1.6949,9.348753 0.55263,13.754273 3.48965,6.84028 9.46929,11.19429 18.57242,13.52331 3.59194,0.919 15.14278,-0.20538 19.11598,-1.86078 z m 41.98402,-33.920583 c 2.77421,-2.77421 3.4,-4.16377 3.4,-7.54966 0,-8.49276 -5.56792,-13.77391 -13.41275,-12.72192 -6.07187,0.81423 -9.58725,5.13632 -9.58725,11.78736 0,4.44872 0.42498,5.5092 3.4,8.48422 2.90213,2.90213 4.08824,3.4 8.1,3.4 4.01176,0 5.19787,-0.49787 8.1,-3.4 z m -88.81679,-2.1607 c 3.05248,-2.13805 5.21679,-6.64143 5.21679,-10.85484 0,-4.70537 -4.82184,-10.27281 -9.68764,-11.18564 -6.88382,-1.29141 -14.30488,4.98641 -14.30488,12.10118 0,3.76415 3.29345,9.28299 6.24884,10.47118 3.5835,1.44071 10.106,1.16377 12.52689,-0.53188 z m -36.45424,-16.31033 c 0.53342,-10.53406 0.47823,-16.721766 -0.15477,-17.354768 -1.20594,-1.205939 -35.04704,-2.685695 -37.2673,-1.629572 -1.3159,0.625942 -1.69905,3.47082 -2.20202,16.34983 -0.33491,8.57561 -0.36521,16.22714 -0.0673,17.00339 0.64027,1.66852 6.97388,2.17622 25.86245,2.07311 l 13,-0.071 0.82897,-16.37103 z m 23.28606,-22.329339 c 3.57899,-2.111655 8.76338,-2.626577 16.38497,-1.62738 1.95358,0.256116 2.5698,-0.163673 2.81934,-1.920636 0.23996,-1.689473 -0.38151,-2.518858 -2.5,-3.336428 -6.11626,-2.360389 -21.50958,0.81103 -23.01816,4.742334 -0.65189,1.69879 0.32844,4.342482 1.61028,4.342482 0.53582,0 2.65243,-0.990167 4.70357,-2.200372 z m 34.38497,271.530362 c -9.20073,-0.91988 -23.14879,-4.80432 -30.97845,-8.62728 -32.53134,-15.88399 -52.02155,-46.8691 -52.02155,-82.70272 0,-16.35096 3.92178,-31.74799 11.46196,-45 4.88317,-8.58225 7.37836,-11.77135 15.79646,-20.18946 15.01077,-15.01077 33.94472,-23.79411 55.62639,-25.80474 26.54272,-2.46142 52.75235,6.95844 71.74864,25.78678 8.2816,8.20838 10.04204,11.20742 6.57878,11.20742 -3.01763,0 -8.17308,5.24918 -10.03016,10.21251 l -1.76324,4.71252 -4.28437,-5.36918 C 272.9053,168.16395 253.01414,158.785 231.65479,158.785 c -20.02031,0 -36.40157,7.05814 -50.84625,21.90796 -28.30313,29.09696 -24.54474,78.63703 7.85739,103.5699 16.42696,12.64026 36.0899,17.30181 56.98886,13.51053 8.29785,-1.50532 22.08592,-7.93527 28.35946,-13.22519 l 4.87003,-4.10647 4.63526,1.66122 c 2.81605,1.00925 7.6769,1.65929 12.38525,1.65629 4.2625,-0.003 7.75,0.37029 7.75,0.82893 0,1.4281 -12.22391,13.59278 -18.00564,17.91838 -11.75807,8.7968 -27.59374,14.94065 -44.31672,17.1938 -7.64895,1.03058 -10.57441,1.09411 -17.67764,0.38394 z m 2.5,-42.50896 c -10.17417,-5.68811 -28.77895,-22.52463 -36.82057,-33.32104 -13.22613,-17.75695 -16.65743,-33.16567 -10.41121,-46.75297 3.5038,-7.62179 7.02514,-11.27383 14.34485,-14.87731 5.54975,-2.73213 7.5458,-3.188 13.78283,-3.14781 8.76712,0.0565 14.49641,2.2941 20.83577,8.13752 l 4.38033,4.03764 2.944,-2.54278 c 9.02132,-7.79187 19.22635,-10.55044 29.39393,-7.94563 3.3972,0.87032 8.16043,2.94722 10.58494,4.61533 7.16771,4.93152 13.46513,15.7655 13.46513,23.16521 v 2.93775 l -19.3115,-0.31347 c -19.19387,-0.31157 -19.33384,-0.29825 -22.97939,2.18652 -3.59271,2.44877 -5.45124,5.50526 -5.77655,9.5 -0.45224,5.5534 0.2246,7.84439 3.11528,10.54469 3.10837,2.90365 4.55628,3.26446 17.95216,4.47362 l 6.5,0.58671 -0.0901,6.12583 -0.0901,6.12583 -6.98526,6.66108 c -8.07767,7.7028 -15.55682,13.39747 -23.43552,17.84393 -5.93327,3.34853 -8.21329,3.74043 -11.39907,1.95935 z"
       id="path337" />
  </g>
</svg>
