<svg width="29" height="29" viewBox="0 0 29 29" fill="none" xmlns="http://www.w3.org/2000/svg">
<path d="M20.8357 18.3357H19.5191L19.0524 17.8857C20.094 16.6757 20.8552 15.2504 21.2817 13.7118C21.7081 12.1732 21.7892 10.5593 21.5191 8.98573C20.7357 4.3524 16.8691 0.652399 12.2024 0.0857328C10.5618 -0.121824 8.89538 0.0486855 7.33077 0.584214C5.76617 1.11974 4.34481 2.0061 3.17545 3.17545C2.0061 4.34481 1.11974 5.76617 0.584214 7.33077C0.0486855 8.89538 -0.121824 10.5618 0.0857328 12.2024C0.652399 16.8691 4.3524 20.7357 8.98573 21.5191C10.5593 21.7892 12.1732 21.7081 13.7118 21.2817C15.2504 20.8552 16.6757 20.094 17.8857 19.0524L18.3357 19.5191V20.8357L25.4191 27.9191C26.1024 28.6024 27.2191 28.6024 27.9024 27.9191C28.5857 27.2357 28.5857 26.1191 27.9024 25.4357L20.8357 18.3357ZM10.8357 18.3357C6.68573 18.3357 3.33573 14.9857 3.33573 10.8357C3.33573 6.68573 6.68573 3.33573 10.8357 3.33573C14.9857 3.33573 18.3357 6.68573 18.3357 10.8357C18.3357 14.9857 14.9857 18.3357 10.8357 18.3357Z" fill="black"/>
</svg>
