<svg width="40" height="40" viewBox="0 0 40 40" fill="none" xmlns="http://www.w3.org/2000/svg">
<path d="M37.6267 7.41333L31.3867 4.65333L27.6667 0.453333C27.5417 0.311109 27.3879 0.197122 27.2155 0.118956C27.0431 0.0407912 26.856 0.000239728 26.6667 0H13.3333C13.144 0.000239728 12.9569 0.0407912 12.7845 0.118956C12.6121 0.197122 12.4583 0.311109 12.3333 0.453333L8.61333 4.65333L2.37333 7.41333C1.66697 7.72776 1.06688 8.24017 0.645666 8.88855C0.224457 9.53693 0.000188108 10.2935 0 11.0667V20.5867C0.000371651 20.8098 0.0567154 21.0292 0.16387 21.2249C0.271024 21.4205 0.425564 21.5862 0.613333 21.7067L5.33333 24.7333V38.6667C5.33333 39.0203 5.47381 39.3594 5.72386 39.6095C5.97391 39.8595 6.31305 40 6.66667 40H33.3333C33.687 40 34.0261 39.8595 34.2761 39.6095C34.5262 39.3594 34.6667 39.0203 34.6667 38.6667V24.7333L39.3867 21.7067C39.5744 21.5862 39.729 21.4205 39.8361 21.2249C39.9433 21.0292 39.9996 20.8098 40 20.5867V11.0667C39.9998 10.2935 39.7755 9.53693 39.3543 8.88855C38.9331 8.24017 38.333 7.72776 37.6267 7.41333ZM20 9.48L15.7333 2.66667H24.2667L20 9.48ZM26.8533 3.54667L29.0267 6.01333L25.64 14.0933L21.8267 11.6L26.8533 3.54667ZM13.1467 3.54667L18.1733 11.5467L14.36 14.04L10.9733 6.01333L13.1467 3.54667ZM37.3333 19.8533L34.6667 21.56V17.3333C34.6667 16.9797 34.5262 16.6406 34.2761 16.3905C34.0261 16.1405 33.687 16 33.3333 16C32.9797 16 32.6406 16.1405 32.3905 16.3905C32.1405 16.6406 32 16.9797 32 17.3333V37.3333H8V17.3333C8 16.9797 7.85952 16.6406 7.60948 16.3905C7.35943 16.1405 7.02029 16 6.66667 16C6.31305 16 5.97391 16.1405 5.72386 16.3905C5.47381 16.6406 5.33333 16.9797 5.33333 17.3333V21.56L2.66667 19.8533V11.0667C2.6672 10.8102 2.7417 10.5593 2.88123 10.3441C3.02076 10.1289 3.2194 9.95849 3.45333 9.85333L8.70667 7.52L12.52 16.6C12.5959 16.7728 12.7077 16.9276 12.8479 17.054C12.9881 17.1804 13.1536 17.2756 13.3333 17.3333C13.5203 17.3904 13.7176 17.4057 13.9111 17.378C14.1047 17.3504 14.2898 17.2805 14.4533 17.1733L18.6667 14.4667V18.4667C18.6667 18.8203 18.8071 19.1594 19.0572 19.4095C19.3072 19.6595 19.6464 19.8 20 19.8C20.3536 19.8 20.6928 19.6595 20.9428 19.4095C21.1929 19.1594 21.3333 18.8203 21.3333 18.4667V14.4667L25.52 17.2C25.7384 17.3411 25.9933 17.4153 26.2533 17.4133C26.3945 17.4087 26.534 17.3817 26.6667 17.3333C26.8539 17.2761 27.0262 17.1783 27.1714 17.047C27.3166 16.9156 27.431 16.7539 27.5067 16.5733L31.32 7.49333L36.5733 9.82667C36.8065 9.93759 37.0024 10.1138 37.1373 10.3339C37.2722 10.554 37.3403 10.8086 37.3333 11.0667V19.8533Z" fill="black"/>
</svg>
