<svg width="40" height="32" viewBox="0 0 40 32" fill="none" xmlns="http://www.w3.org/2000/svg">
<path d="M39.7504 22.1935L34.1368 7.4529V3.6129C34.1313 2.65637 33.7433 1.74056 33.0571 1.06418C32.3708 0.387804 31.4417 0.00541956 30.4712 0H9.5248C8.55432 0.00541956 7.62515 0.387804 6.9389 1.06418C6.25265 1.74056 5.86469 2.65637 5.85919 3.6129V7.4529L0.245558 22.1935C-0.054061 22.9544 -0.080288 23.7934 0.171242 24.5709C0.422772 25.3484 0.936888 26.0176 1.62802 26.4671C7.06063 30.0631 13.454 31.9887 19.998 32C26.5522 31.9699 32.9535 30.0462 38.4099 26.4671C39.0907 26.0091 39.5939 25.3372 39.8374 24.5611C40.0808 23.7849 40.0502 22.9503 39.7504 22.1935ZM9.00114 3.6129C9.00114 3.47602 9.05631 3.34474 9.15452 3.24794C9.25273 3.15115 9.38592 3.09677 9.5248 3.09677H30.4712C30.6101 3.09677 30.7433 3.15115 30.8415 3.24794C30.9397 3.34474 30.9948 3.47602 30.9948 3.6129V6.19355H9.00114V3.6129ZM36.7551 23.9071C35.1985 24.9387 33.5427 25.8169 31.8117 26.529L30.0313 17.7548C29.9105 17.3885 29.6573 17.0788 29.3198 16.8846C28.9822 16.6905 28.5841 16.6255 28.2011 16.702C27.8181 16.7785 27.477 16.9912 27.2428 17.2996C27.0087 17.6079 26.8978 17.9904 26.9312 18.3742L28.8164 27.5819C26.4956 28.2868 24.0978 28.7165 21.6737 28.8619V18.0645C21.6737 17.6539 21.5082 17.26 21.2136 16.9696C20.919 16.6793 20.5194 16.5161 20.1027 16.5161C19.6861 16.5161 19.2865 16.6793 18.9919 16.9696C18.6973 17.26 18.5317 17.6539 18.5317 18.0645V28.8413C16.1092 28.711 13.7112 28.2952 11.389 27.6026L13.2742 18.3742C13.3077 17.9904 13.1968 17.6079 12.9626 17.2996C12.7285 16.9912 12.3874 16.7785 12.0044 16.702C11.6214 16.6255 11.2232 16.6905 10.8857 16.8846C10.5482 17.0788 10.2949 17.3885 10.1741 17.7548L8.28897 26.529C6.57134 25.8031 4.92383 24.9255 3.36657 23.9071C3.28363 23.8335 3.22672 23.7358 3.20411 23.6281C3.1815 23.5204 3.19439 23.4084 3.24089 23.3084L8.51938 9.29032H31.5604L36.7551 23.3084C36.8154 23.3969 36.8477 23.5011 36.8477 23.6077C36.8477 23.7144 36.8154 23.8186 36.7551 23.9071Z" fill="black"/>
</svg>
