<svg width="50" height="50" viewBox="0 0 50 50" fill="none" xmlns="http://www.w3.org/2000/svg">
<path d="M45.5 22C45.5 22.825 44.83 23.5 44 23.5H5.99998C5.17498 23.5 4.49998 22.825 4.49998 22C4.49998 21.17 5.17498 20.5 5.99998 20.5H44C44.83 20.5 45.5 21.17 45.5 22ZM42.7 25.5L41.88 28.61C40.29 28.33 38.57 28.615 37.355 29.395L36.885 29.7L35.06 30.875C33.855 31.655 31.815 31.655 30.605 30.875L28.79 29.705L28.31 29.395C26.455 28.2 23.545 28.2 21.69 29.395L21.2 29.71L19.395 30.875C18.19 31.655 16.145 31.65 14.94 30.875L13.145 29.72L12.645 29.395C11.425 28.61 9.71498 28.32 8.12498 28.605L7.29998 25.5H42.7Z" fill="black"/>
<path d="M38.44 31.0799L36.145 32.5549C35.215 33.1549 34.025 33.4549 32.835 33.4549C31.645 33.4549 30.45 33.1549 29.525 32.5549L27.23 31.0799C26.02 30.2999 23.98 30.2999 22.77 31.0799L20.48 32.5549C18.62 33.7499 15.715 33.7499 13.855 32.5549L11.56 31.0799C10.815 30.5999 9.685 30.4099 8.64 30.5549L12.445 44.9149C12.61 45.2699 12.96 45.4999 13.355 45.4999H36.645C37.04 45.4999 37.395 45.2699 37.555 44.9149L41.365 30.5499C40.31 30.4049 39.195 30.5949 38.44 31.0799ZM25 42.4999C23.07 42.4999 21.5 40.9299 21.5 38.9999C21.5 37.0699 23.07 35.4999 25 35.4999C26.93 35.4999 28.5 37.0699 28.5 38.9999C28.5 40.9299 26.93 42.4999 25 42.4999Z" fill="black"/>
<path d="M25 40.5C25.8284 40.5 26.5 39.8284 26.5 39C26.5 38.1716 25.8284 37.5 25 37.5C24.1716 37.5 23.5 38.1716 23.5 39C23.5 39.8284 24.1716 40.5 25 40.5Z" fill="black"/>
<path d="M33 11.5C34.933 11.5 36.5 9.933 36.5 8C36.5 6.067 34.933 4.5 33 4.5C31.067 4.5 29.5 6.067 29.5 8C29.5 9.933 31.067 11.5 33 11.5Z" fill="black"/>
<path d="M15 13.5C15.8284 13.5 16.5 12.8284 16.5 12C16.5 11.1716 15.8284 10.5 15 10.5C14.1716 10.5 13.5 11.1716 13.5 12C13.5 12.8284 14.1716 13.5 15 13.5Z" fill="black"/>
</svg>
